<?xml version="1.0" encoding="utf-8"?>
<!-- Generator: Adobe Illustrator 19.0.0, SVG Export Plug-In . SVG Version: 6.00 Build 0)  -->
<svg version="1.1" id="Layer_1" xmlns="http://www.w3.org/2000/svg" xmlns:xlink="http://www.w3.org/1999/xlink" x="0px" y="0px"
	 viewBox="-255 347 100 100" style="enable-background:new -255 347 100 100;" xml:space="preserve">
<style type="text/css">
	.st0{fill:#FF0066;}
</style>
<g>
	<g>
		<path class="st0" d="M-221,384.6c3.2,3.2,6.4,6.4,9.6,9.6c5.1,5.1,10.3,10.3,15.3,15.3c1.2,1.2,2.3,2.3,3.5,3.5
			c0.9,0.9,2.6,0.9,3.5,0c0.9-0.9,0.9-2.6,0-3.5c-3.2-3.2-6.4-6.4-9.6-9.6c-5.1-5.1-10.3-10.3-15.3-15.3c-1.2-1.2-2.3-2.3-3.5-3.5
			c-0.9-0.9-2.6-0.9-3.5,0C-222,382-222,383.6-221,384.6L-221,384.6z"/>
		<path class="st0" d="M-217.5,413c3.2-3.2,6.4-6.4,9.6-9.6c5.1-5.1,10.3-10.3,15.3-15.3c1.2-1.2,2.3-2.3,3.5-3.5
			c0.9-0.9,0.9-2.6,0-3.5c-0.9-0.9-2.6-0.9-3.5,0c-3.2,3.2-6.4,6.4-9.6,9.6c-5.1,5.1-10.3,10.3-15.3,15.3c-1.2,1.2-2.3,2.3-3.5,3.5
			c-0.9,0.9-0.9,2.6,0,3.5C-220.1,414-218.4,414-217.5,413L-217.5,413z"/>
	</g>
	<g>
		<path class="st0" d="M-168,397c0-22.2-17.4-38.9-40-36.9c-20.7,1.8-35.1,19-34,38.7c1.1,20.6,19.5,37.2,39.9,34.9
			C-179,431.2-168,415.2-168,397z M-180.7,418c-10.2,12.7-30.8,14.7-43.9,4.4c-13.9-10.8-16.7-31.4-6.2-44.9
			c3.4-4.4,8.3-7.8,12.8-9.9c21.2-9.8,47.4,6.9,44.9,32.2C-174,409.9-178.3,415-180.7,418z"/>
		<path class="st0" d="M-236.9,401.2c0,0.1,0,0.1,0,0.2C-236.9,401.4-236.8,401.5-236.9,401.2z"/>
	</g>
</g>
</svg>
