<?xml version="1.0" encoding="utf-8"?>
<!-- Generator: Adobe Illustrator 19.0.0, SVG Export Plug-In . SVG Version: 6.00 Build 0)  -->
<svg version="1.1" id="Layer_1" xmlns="http://www.w3.org/2000/svg" xmlns:xlink="http://www.w3.org/1999/xlink" x="0px" y="0px"
	 viewBox="-255 347 100 100" style="enable-background:new -255 347 100 100;" xml:space="preserve">
<style type="text/css">
	.st0{fill:#999999;}
</style>
<g>
	<g transform="translate(50 50) scale(0.69 0.69) rotate(0) translate(-50 -50)">
		<g>
			<g>
				<g>
					<path class="st0" d="M-338.7,538c3.8,3.8,7.7,7.7,11.5,11.5c6.1,6.1,12.3,12.3,18.4,18.4c1.4,1.4,2.8,2.8,4.2,4.2
						c1.1,1.1,3.1,1.1,4.2,0c1.1-1.1,1.1-3.1,0-4.2c-3.8-3.8-7.7-7.7-11.5-11.5c-6.1-6.1-12.3-12.3-18.4-18.4
						c-1.4-1.4-2.8-2.8-4.2-4.2c-1.1-1.1-3.1-1.1-4.2,0C-339.9,534.9-339.9,536.8-338.7,538L-338.7,538z"/>
				</g>
			</g>
			<g>
				<g>
					<path class="st0" d="M-334.5,572.1c3.8-3.8,7.7-7.7,11.5-11.5c6.1-6.1,12.3-12.3,18.4-18.4c1.4-1.4,2.8-2.8,4.2-4.2
						c1.1-1.1,1.1-3.1,0-4.2c-1.1-1.1-3.1-1.1-4.2,0c-3.8,3.8-7.7,7.7-11.5,11.5c-6.1,6.1-12.3,12.3-18.4,18.4
						c-1.4,1.4-2.8,2.8-4.2,4.2c-1.1,1.1-1.1,3.1,0,4.2C-337.6,573.2-335.6,573.2-334.5,572.1L-334.5,572.1z"/>
				</g>
			</g>
		</g>
		<g>
			<g>
				<path class="st0" d="M-281.1,552.9c0,1.1,0,2.1-0.1,3.2c0,0.5-0.1,1-0.1,1.5c0,0.1-0.1,1,0,0.3c-0.1,0.4-0.1,0.7-0.2,1.1
					c-0.3,2-0.8,4.1-1.5,6c-0.3,0.9-0.7,1.8-1,2.8c-0.3,0.8,0.3-0.5-0.1,0.3c-0.1,0.2-0.1,0.3-0.2,0.5c-0.3,0.6-0.5,1.1-0.8,1.7
					c-0.9,1.8-2,3.5-3.1,5.2c-0.3,0.4-0.5,0.7-0.8,1.1c0.4-0.5-0.1,0.2-0.2,0.2c-0.2,0.2-0.3,0.4-0.5,0.6c-0.7,0.8-1.4,1.6-2.1,2.3
					c-0.7,0.7-1.4,1.4-2.1,2c-0.4,0.4-0.8,0.7-1.2,1c-0.1,0.1-0.3,0.2-0.4,0.3c-0.1,0.1-0.9,0.7-0.4,0.3c-1.6,1.2-3.3,2.3-5.1,3.3
					c-0.8,0.5-1.7,0.9-2.6,1.3c-0.2,0.1-0.5,0.2-0.7,0.3c-0.8,0.4,0.6-0.2-0.3,0.1c-0.5,0.2-1,0.4-1.5,0.6c-2,0.7-4,1.3-6.1,1.7
					c-0.5,0.1-1,0.2-1.5,0.3c-0.3,0-0.5,0.1-0.8,0.1c0.7-0.1-0.2,0-0.3,0c-1.1,0.1-2.2,0.2-3.3,0.2c-2.1,0.1-4.3,0-6.4-0.3
					c-0.9-0.1,0.6,0.1-0.3,0c-0.2,0-0.4-0.1-0.5-0.1c-0.5-0.1-1.1-0.2-1.6-0.3c-1.1-0.2-2.1-0.5-3.2-0.8c-0.9-0.3-1.9-0.6-2.8-0.9
					c-0.5-0.2-0.9-0.3-1.4-0.5c-0.1-0.1-0.7-0.3-0.1-0.1c-0.3-0.1-0.6-0.3-1-0.4c-1.8-0.9-3.6-1.8-5.3-2.9c-0.8-0.5-1.6-1.1-2.4-1.7
					c0.5,0.4-0.2-0.1-0.2-0.2c-0.2-0.2-0.4-0.3-0.6-0.5c-0.4-0.3-0.8-0.7-1.2-1c-1.5-1.3-2.9-2.8-4.2-4.3c-0.2-0.2-0.3-0.4-0.5-0.6
					c0-0.1-0.6-0.7-0.2-0.2c-0.3-0.4-0.6-0.8-0.9-1.2c-0.6-0.9-1.2-1.7-1.7-2.6c-0.5-0.9-1-1.8-1.5-2.7c-0.2-0.4-0.4-0.8-0.6-1.2
					c-0.1-0.2-0.2-0.5-0.3-0.7c-0.1-0.3-0.1-0.3,0,0c-0.1-0.2-0.1-0.3-0.2-0.5c-0.8-1.9-1.4-3.9-1.9-5.9c-0.2-1-0.4-2-0.6-2.9
					c0-0.3-0.1-0.5-0.1-0.8c0.1,0.6,0,0.1,0,0c-0.1-0.6-0.1-1.3-0.2-1.9c-0.2-2.1-0.2-4.3,0-6.4c0-0.5,0.1-1,0.1-1.5
					c0-0.2,0.1-0.8,0-0.2c0-0.3,0.1-0.5,0.1-0.8c0.2-1.1,0.4-2.1,0.6-3.2c0.5-2,1.1-4,1.9-5.9c0.3-0.8-0.3,0.5,0.1-0.3
					c0.1-0.2,0.2-0.5,0.3-0.7c0.2-0.4,0.4-0.8,0.6-1.2c0.5-0.9,1-1.9,1.5-2.8c0.5-0.8,1-1.6,1.6-2.4c0.3-0.4,0.6-0.9,0.9-1.3
					c-0.4,0.5,0.1-0.2,0.2-0.2c0.2-0.2,0.4-0.5,0.6-0.7c1.3-1.6,2.8-3,4.3-4.4c0.3-0.3,0.7-0.6,1-0.9c0.2-0.2,0.4-0.3,0.6-0.5
					c0.1,0,0.7-0.6,0.2-0.2c0.8-0.6,1.7-1.2,2.6-1.8c1.7-1.1,3.5-2.1,5.3-2.9c0.2-0.1,0.5-0.2,0.7-0.3c-0.5,0.2-0.1,0,0,0
					c0.5-0.2,1-0.4,1.5-0.6c1-0.4,2-0.7,3.1-1c1-0.3,1.9-0.5,2.9-0.7c0.5-0.1,1.1-0.2,1.6-0.3c0.2,0,0.4-0.1,0.5-0.1
					c0.4-0.1,0.4-0.1,0,0c0.2,0,0.4,0,0.5-0.1c2.1-0.2,4.3-0.3,6.4-0.2c1,0,2,0.1,3,0.2c0.1,0,1,0.1,0.3,0c0.3,0,0.5,0.1,0.8,0.1
					c0.5,0.1,1.1,0.2,1.6,0.3c2,0.4,4,1,6,1.7c0.5,0.2,1,0.4,1.5,0.6c0.8,0.3-0.5-0.3,0.3,0.1c0.2,0.1,0.5,0.2,0.7,0.3
					c1,0.4,1.9,0.9,2.8,1.4c0.8,0.5,1.7,1,2.5,1.5c0.4,0.2,0.7,0.5,1.1,0.7c0.2,0.2,0.4,0.3,0.6,0.5c0.1,0.1,1,0.7,0.4,0.3
					c1.6,1.2,3.1,2.6,4.5,4c0.7,0.7,1.3,1.4,1.9,2.1c0.2,0.2,0.3,0.4,0.5,0.6c0,0,0.5,0.7,0.3,0.3c-0.3-0.3,0.3,0.3,0.2,0.3
					c0.2,0.3,0.4,0.6,0.6,0.9c1.2,1.7,2.2,3.4,3.1,5.2c0.2,0.5,0.5,1,0.7,1.4c0.1,0.2,0.1,0.3,0.2,0.5c0.4,0.8-0.2-0.6,0.1,0.3
					c0.4,1,0.8,2,1.1,3c0.6,2,1.1,4,1.5,6.1c0,0.3,0.1,0.5,0.1,0.8c-0.1-0.7,0,0.2,0,0.3c0.1,0.5,0.1,0.9,0.1,1.4
					C-281.2,550.7-281.1,551.8-281.1,552.9c0,1.6,1.4,3.1,3,3s3-1.3,3-3c0-9.2-2.9-18.3-8.2-25.7c-5.3-7.4-12.7-13-21.2-16.1
					c-17.3-6.3-37.5-0.8-49.2,13.4c-5.9,7.1-9.4,15.8-10.2,25.1c-0.7,9.1,1.5,18.5,6.3,26.4c4.6,7.6,11.5,13.8,19.6,17.4
					c8.6,3.9,18.2,5,27.5,3.1c17.7-3.6,32.1-18.5,34.8-36.4c0.4-2.4,0.6-4.8,0.6-7.2c0-1.6-1.4-3.1-3-3S-281.1,551.2-281.1,552.9z"
					/>
			</g>
		</g>
	</g>
</g>
</svg>
