<svg xmlns="http://www.w3.org/2000/svg" xmlns:xlink="http://www.w3.org/1999/xlink" width="100" height="100" viewBox="0 0 100 100"><g><g transform="translate(50 50) scale(0.69 0.69) rotate(0) translate(-50 -50)" style="fill:#FFFFFF"><svg fill="#FFFFFF" xmlns="http://www.w3.org/2000/svg" xmlns:xlink="http://www.w3.org/1999/xlink" version="1.1" x="0px" y="0px" viewBox="0 0 100 100" enable-background="new 0 0 100 100" xml:space="preserve"><path d="M87.1,59.4c2.8-0.5,4.9-2.9,4.9-5.8v-7.3c0-2.9-2.1-5.3-4.9-5.8l-5.3-0.9c-0.5-1.7-1.2-3.3-2-4.9l3.1-4.4  c1.7-2.3,1.4-5.5-0.6-7.6l-5.1-5.1C76,16.6,74.6,16,73,16c-1.2,0-2.4,0.4-3.4,1.1l-4.4,3.1c-1.6-0.8-3.3-1.5-5.1-2.1l-0.9-5.2  C58.8,10.1,56.3,8,53.5,8h-7.3c-2.9,0-5.3,2.1-5.8,4.9l-0.9,5.4c-1.7,0.6-3.3,1.2-4.8,2l-4.3-3.1c-1-0.7-2.2-1.1-3.4-1.1  c-1.6,0-3,0.6-4.2,1.7L17.6,23c-2,2-2.3,5.2-0.6,7.6l3.2,4.5c-0.8,1.6-1.5,3.2-2,4.9l-5.2,0.9C10.1,41.2,8,43.7,8,46.5v7.3  c0,2.9,2.1,5.3,4.9,5.8l5.4,0.9c0.6,1.7,1.2,3.3,2,4.8l-3.1,4.3c-1.7,2.3-1.4,5.5,0.6,7.6l5.1,5.1c1.1,1.1,2.6,1.7,4.2,1.7  c1.2,0,2.4-0.4,3.4-1.1l4.5-3.2c1.5,0.8,3.1,1.4,4.7,1.9l0.9,5.3c0.5,2.8,2.9,4.9,5.8,4.9h7.3c2.9,0,5.3-2.1,5.8-4.9l0.9-5.3  c1.7-0.5,3.3-1.2,4.9-2l4.4,3.1c1,0.7,2.2,1.1,3.4,1.1c0,0,0,0,0,0c1.6,0,3-0.6,4.2-1.7l5.1-5.1c2-2,2.3-5.2,0.6-7.6l-3.1-4.4  c0.8-1.6,1.5-3.2,2-4.9L87.1,59.4z M78.8,54.5c-1.2,0.2-2.2,1.1-2.5,2.3c-0.6,2.5-1.6,4.8-2.9,7c-0.6,1.1-0.6,2.4,0.1,3.4l4.1,5.8  l-4.7,4.7l-5.7-4.1c-1-0.7-2.3-0.8-3.4-0.1c-2.2,1.3-4.6,2.3-7,2.9c-1.2,0.3-2.1,1.3-2.3,2.5l-1.2,7h-6.7l-1.2-7  c-0.2-1.2-1.1-2.2-2.3-2.5c-2.4-0.6-4.7-1.6-6.9-2.8C35.3,72.9,34,73,33,73.7l-5.8,4.1l-4.7-4.7l4.1-5.7c0.7-1,0.8-2.3,0.1-3.4  c-1.3-2.2-2.3-4.5-3-7c-0.3-1.2-1.3-2.1-2.5-2.3l-7-1.2v-6.7l6.9-1.2c1.2-0.2,2.2-1.1,2.5-2.3c0.6-2.5,1.6-4.8,2.9-7  c0.6-1.1,0.6-2.4-0.2-3.4l-4.1-5.8l4.7-4.7l5.7,4.1c1,0.7,2.3,0.8,3.4,0.1c2.2-1.3,4.5-2.3,7-3c1.2-0.3,2.1-1.3,2.3-2.5l1.2-7h6.7  l1.2,6.9c0.2,1.2,1.1,2.2,2.3,2.5c2.5,0.6,4.9,1.6,7.2,3c1.1,0.6,2.4,0.6,3.4-0.1l5.8-4.1l4.7,4.7l-4.1,5.7c-0.7,1-0.8,2.3-0.1,3.4  c1.3,2.2,2.3,4.6,2.9,7c0.3,1.2,1.3,2.1,2.5,2.3l7,1.2v6.7L78.8,54.5z M50,31.4c-10.2,0-18.6,8.3-18.6,18.6  c0,10.2,8.3,18.6,18.6,18.6c10.2,0,18.6-8.3,18.6-18.6C68.6,39.8,60.2,31.4,50,31.4z M50,62.4c-6.8,0-12.4-5.5-12.4-12.4  S43.2,37.6,50,37.6S62.4,43.2,62.4,50S56.8,62.4,50,62.4z"></path></svg></g></g></svg>