<?xml version="1.0" encoding="utf-8"?>
<!-- Generator: Adobe Illustrator 19.0.0, SVG Export Plug-In . SVG Version: 6.00 Build 0)  -->
<svg version="1.1" baseProfile="tiny" id="Layer_1" xmlns="http://www.w3.org/2000/svg" xmlns:xlink="http://www.w3.org/1999/xlink"
	 x="0px" y="0px" viewBox="0 165.9 612 462.1" xml:space="preserve">
<path id="XMLID_32_" d="M364.8,504.7c-21,19.1-37.6,31.1-58.6,50.1c0,0,57.2,20.1,90.5,29.9l-148,8.5L288,555l-11.9-5.7
	C158,627.2,16,550.6,95.2,411.6l-4.6-4.8c0,0-23.8,19.3-38.5,32.3c1.4-37.2,1.7-74.4,1.8-111.6l39.9,58.1l-0.3-0.3l24.9-23
	c0,0-76.4-48.1-94.7-126.7l7.8,360.6c140.2,23.2,323.5,13.3,483,13.2c0,0-94.7-30-127.6-70.2C378,528.6,370.9,517,364.8,504.7z
	 M379.9,480.6c5.4,16.4,13.4,32.1,23,46.4c0.1,0.1-0.1-0.1,0,0l0,0c41.4,58.9,101.5,74.1,168.4,89.8c0,0-387.3-0.2-555.3-0.2v-6l0,0
	c-0.3-141.9,2.5-284,1-425.9c13.9,51.1,30.1,97.4,68.1,135.7c0.1,0.1-0.1-0.1-0.1-0.1l0,0c15.2,15.8,32.7,29.3,51.5,40.5
	C121.3,374.9,106,389,90.7,403L65,367.2l0,0l2,42.6c12.5-11.8,13-13.7,25.2-25.8c7.3,8.8,14.6,17.6,22,26.3
	c-21.8,35.1-27.6,79.8-7.9,116.9c0.1,0.2-0.1-0.1-0.1-0.1c36.7,54.9,120,49.2,166.7,11.2l33.5,15.8l-30.2,24.3l81.5,0.9L288.4,555
	c30.7-31.2,54.8-61.8,85.6-92.8L379.9,480.6z"/>
</svg>
