<?xml version="1.0" encoding="utf-8"?>
<!-- Generator: Adobe Illustrator 19.0.0, SVG Export Plug-In . SVG Version: 6.00 Build 0)  -->
<svg version="1.1" baseProfile="basic" id="Layer_1"
	 xmlns="http://www.w3.org/2000/svg" xmlns:xlink="http://www.w3.org/1999/xlink" x="0px" y="0px" viewBox="-245 337 120 120"
	 xml:space="preserve">
<style type="text/css">
	.st0{display:none;}
	.st1{display:inline;}
	.st2{fill:#D8D8D8;}
	.st3{fill:#FFFFFF;}
	.st4{display:inline;fill:none;stroke:#000000;stroke-miterlimit:10;}
	.st5{display:inline;opacity:0.18;}
	.st6{display:inline;opacity:0.32;}
	.st7{display:inline;opacity:0.47;}
	.st8{fill:#2D0101;}
	.st9{fill:#B72121;}
	.st10{fill:#8C1010;}
	.st11{fill:#720F0F;}
	.st12{opacity:0.6;}
	.st13{opacity:0;}
	.st14{opacity:0.15;}
	.st15{opacity:0.3;}
</style>
<g id="circle_guides" class="st0">
	<g class="st1">
		<circle class="st2" cx="-920" cy="1408" r="60"/>
	</g>
</g>
<g id="lines" class="st0">
	<g class="st1">
		
			<rect x="-961.9" y="1366" transform="matrix(0.7071 -0.7071 0.7071 0.7071 -1265.0243 -238.1302)" class="st3" width="83.9" height="83.9"/>
		<path d="M-920,1349.4l58.6,58.6l-58.6,58.6l-58.6-58.6L-920,1349.4 M-920,1348l-60,60l60,60l60-60L-920,1348L-920,1348z"/>
	</g>
	<polyline class="st4" points="-960,1388 -920,1405 -880,1388 	"/>
	<line class="st4" x1="-920" y1="1468" x2="-920" y2="1405"/>
</g>
<g id="shapes" class="st0">
	<polygon class="st5" points="-960,1388 -920,1405 -880,1388 -920,1348 	"/>
	<polygon class="st6" points="-920,1468 -920,1405 -960,1388 -980,1408 	"/>
	<polygon class="st7" points="-860,1408 -920,1468 -920,1405 -880,1388 	"/>
</g>
<g id="backgrounds" class="st0">
	<g class="st1">
		
			<rect x="-962.4" y="1365.5" transform="matrix(0.7071 -0.7071 0.7071 0.7071 -1265.0243 -238.1302)" class="st8" width="84.9" height="84.9"/>
	</g>
</g>
<g id="shapes_copy" class="st0">
	<g class="st1">
		<polygon class="st9" points="-960,1388 -920,1405 -880,1388 -920,1348 		"/>
	</g>
	<g class="st1">
		<polygon class="st10" points="-920,1468 -920,1405 -960,1388 -980,1408 		"/>
	</g>
	<g class="st1">
		<polygon class="st11" points="-860,1408 -920,1468 -920,1405 -880,1388 		"/>
	</g>
</g>
<g>
	<path class="st12" d="M-127.8,392l-52.3-52.3c-2.7-2.7-7.2-2.7-9.9,0l-52.3,52.3c-2.7,2.7-2.7,7.2,0,9.9l52.3,52.3
		c2.7,2.7,7.2,2.7,9.9,0l52.3-52.3C-125,399.2-125,394.8-127.8,392z M-185.9,451.9l-55.6-55.3l18.3-18.2l37.3,15.9V451.9z
		 M-221.8,376.9l36.8-36.8l36.8,36.8l-36.8,15.6L-221.8,376.9z M-184.1,451.9v-57.6l37.3-15.9l18.3,18.2L-184.1,451.9z"/>
	<polygon class="st13" points="-185,340.1 -221.8,376.9 -185,392.5 -148.2,376.9 	"/>
	<polygon class="st14" points="-241.5,396.6 -185.9,451.9 -185.9,394.3 -223.2,378.4 	"/>
	<polygon class="st15" points="-184.1,394.3 -184.1,451.9 -128.5,396.6 -146.8,378.4 	"/>
</g>
</svg>
