<?xml version="1.0" encoding="utf-8"?>
<!-- Generator: Adobe Illustrator 19.0.0, SVG Export Plug-In . SVG Version: 6.00 Build 0)  -->
<svg version="1.1" id="Layer_1" xmlns="http://www.w3.org/2000/svg" xmlns:xlink="http://www.w3.org/1999/xlink" x="0px" y="0px"
	 viewBox="-245 337 120 120" style="enable-background:new -245 337 120 120;" xml:space="preserve">
<style type="text/css">
	.st0{fill:#331111;}
	.st1{display:none;}
	.st2{display:inline;}
	.st3{fill:#D8D8D8;}
	.st4{fill:#FFFFFF;}
	.st5{display:inline;fill:none;stroke:#000000;stroke-miterlimit:10;}
	.st6{display:inline;opacity:0.18;enable-background:new    ;}
	.st7{display:inline;opacity:0.32;enable-background:new    ;}
	.st8{display:inline;opacity:0.47;enable-background:new    ;}
	.st9{fill:#2D0101;}
	.st10{fill:#B72121;}
	.st11{fill:#8C1010;}
	.st12{fill:#720F0F;}
</style>
<g>
	<path class="st0" d="M-182.2,455c-1.6,1.6-4.1,1.6-5.7,0l-55.2-55.2c-1.6-1.6-1.6-4.1,0-5.7l55.2-55.2c1.6-1.6,4.1-1.6,5.7,0
		l55.2,55.2c1.6,1.6,1.6,4.1,0,5.7L-182.2,455z"/>
</g>
<g id="circle_guides" class="st1">
	<g class="st2">
		<circle class="st3" cx="-185" cy="397" r="60"/>
	</g>
</g>
<g id="lines" class="st1">
	<g class="st2">
		
			<rect x="-226.9" y="355.1" transform="matrix(-0.7071 0.7071 -0.7071 -0.7071 -34.974 808.4867)" class="st4" width="83.9" height="83.9"/>
		<path d="M-185,338.4l58.6,58.6l-58.6,58.6l-58.6-58.6L-185,338.4 M-185,337l-60,60l60,60l60-60L-185,337L-185,337z"/>
	</g>
	<polyline class="st5" points="-225,377 -185,394 -145,377 	"/>
	<line class="st5" x1="-185" y1="457" x2="-185" y2="394"/>
</g>
<g id="shapes" class="st1">
	<polygon class="st6" points="-225,377 -185,394 -145,377 -185,337 	"/>
	<polygon class="st7" points="-185,457 -185,394 -225,377 -245,397 	"/>
	<polygon class="st8" points="-125,397 -185,457 -185,394 -145,377 	"/>
</g>
<g id="backgrounds" class="st1">
	<g class="st2">
		
			<rect x="-227.4" y="354.6" transform="matrix(-0.7071 0.7071 -0.7071 -0.7071 -34.974 808.4867)" class="st9" width="84.9" height="84.9"/>
	</g>
</g>
<g id="shapes_copy" class="st1">
	<g class="st2">
		<polygon class="st10" points="-225,377 -185,394 -145,377 -185,337 		"/>
	</g>
	<g class="st2">
		<polygon class="st11" points="-185,457 -185,394 -225,377 -245,397 		"/>
	</g>
	<g class="st2">
		<polygon class="st12" points="-125,397 -185,457 -185,394 -145,377 		"/>
	</g>
</g>
<g id="shapes_copy_2">
	<polygon class="st10" points="-221.2,377.6 -185,341.4 -148.8,377.6 -185,393.1 	"/>
	<polygon class="st11" points="-240.6,397 -222.6,379.1 -185.9,394.7 -185.9,451.6 	"/>
	<polygon class="st12" points="-184.1,394.7 -147.4,379.1 -129.4,397 -184.1,451.6 	"/>
</g>
</svg>
