<?xml version="1.0" encoding="utf-8"?>
<!-- Generator: Adobe Illustrator 19.0.0, SVG Export Plug-In . SVG Version: 6.00 Build 0)  -->
<svg version="1.1" id="Layer_1" xmlns="http://www.w3.org/2000/svg" xmlns:xlink="http://www.w3.org/1999/xlink" x="0px" y="0px"
	 viewBox="-245 337 120 120" style="enable-background:new -245 337 120 120;" xml:space="preserve">
<style type="text/css">
	.st0{fill:#331111;}
	.st1{display:none;}
	.st2{display:inline;}
	.st3{fill:#D8D8D8;}
	.st4{fill:#FFFFFF;}
	.st5{display:inline;fill:none;stroke:#000000;stroke-miterlimit:10;}
	.st6{display:inline;opacity:0.18;enable-background:new    ;}
	.st7{display:inline;opacity:0.32;enable-background:new    ;}
	.st8{display:inline;opacity:0.47;enable-background:new    ;}
	.st9{fill:#2D0101;}
	.st10{fill:#B72121;}
	.st11{fill:#8C1010;}
	.st12{fill:#720F0F;}
</style>
<g>
	<path class="st0" d="M-180.1,454.2c-2.7,2.7-7.2,2.7-9.9,0l-52.3-52.3c-2.7-2.7-2.7-7.2,0-9.9l52.3-52.3c2.7-2.7,7.2-2.7,9.9,0
		l52.3,52.3c2.7,2.7,2.7,7.2,0,9.9L-180.1,454.2z"/>
</g>
<g id="circle_guides" class="st1">
	<g class="st2">
		<circle class="st3" cx="-675" cy="1071" r="60"/>
	</g>
</g>
<g id="lines" class="st1">
	<g class="st2">
		
			<rect x="-716.9" y="1029" transform="matrix(-0.7071 0.7071 -0.7071 -0.7071 -394.9492 2305.4802)" class="st4" width="83.9" height="83.9"/>
		<path d="M-675,1012.4l58.6,58.6l-58.6,58.6l-58.6-58.6L-675,1012.4 M-675,1011l-60,60l60,60l60-60L-675,1011L-675,1011z"/>
	</g>
	<polyline class="st5" points="-715,1051 -675,1068 -635,1051 	"/>
	<line class="st5" x1="-675" y1="1131" x2="-675" y2="1068"/>
</g>
<g id="shapes" class="st1">
	<polygon class="st6" points="-715,1051 -675,1068 -635,1051 -675,1011 	"/>
	<polygon class="st7" points="-675,1131 -675,1068 -715,1051 -735,1071 	"/>
	<polygon class="st8" points="-615,1071 -675,1131 -675,1068 -635,1051 	"/>
</g>
<g id="backgrounds" class="st1">
	<g class="st2">
		
			<rect x="-717.4" y="1028.5" transform="matrix(-0.7071 0.7071 -0.7071 -0.7071 -394.9492 2305.4802)" class="st9" width="84.9" height="84.9"/>
	</g>
</g>
<g id="shapes_copy" class="st1">
	<g class="st2">
		<polygon class="st10" points="-715,1051 -675,1068 -635,1051 -675,1011 		"/>
	</g>
	<g class="st2">
		<polygon class="st11" points="-675,1131 -675,1068 -715,1051 -735,1071 		"/>
	</g>
	<g class="st2">
		<polygon class="st12" points="-615,1071 -675,1131 -675,1068 -635,1051 		"/>
	</g>
</g>
<g id="shapes_copy_2">
	<polygon class="st10" points="-221.8,377.3 -185,340.5 -148.2,377.3 -185,392.9 	"/>
	<polygon class="st11" points="-241.5,397 -223.2,378.8 -185.9,394.7 -185.9,452.3 	"/>
	<polygon class="st12" points="-184.1,394.7 -146.8,378.8 -128.5,397 -184.1,452.3 	"/>
</g>
</svg>
