<?xml version="1.0" encoding="utf-8"?>
<!-- Generator: Adobe Illustrator 19.0.0, SVG Export Plug-In . SVG Version: 6.00 Build 0)  -->
<svg version="1.1" baseProfile="basic" id="Layer_1"
	 xmlns="http://www.w3.org/2000/svg" xmlns:xlink="http://www.w3.org/1999/xlink" x="0px" y="0px" viewBox="-245 337 120 120"
	 xml:space="preserve">
<style type="text/css">
	.st0{fill:#331111;}
	.st1{display:none;}
	.st2{display:inline;}
	.st3{fill:#D8D8D8;}
	.st4{fill:#FFFFFF;}
	.st5{display:inline;fill:none;stroke:#000000;stroke-miterlimit:10;}
	.st6{display:inline;opacity:0.18;}
	.st7{display:inline;opacity:0.32;}
	.st8{display:inline;opacity:0.47;}
	.st9{fill:#2D0101;}
	.st10{fill:#B72121;}
	.st11{fill:#8C1010;}
	.st12{fill:#720F0F;}
</style>
<g>
	<path class="st0" d="M-180.1,454.2c-2.7,2.7-7.2,2.7-9.9,0l-52.3-52.3c-2.7-2.7-2.7-7.2,0-9.9l52.3-52.3c2.7-2.7,7.2-2.7,9.9,0
		l52.3,52.3c2.7,2.7,2.7,7.2,0,9.9L-180.1,454.2z"/>
</g>
<g id="circle_guides" class="st1">
	<g class="st2">
		<circle class="st3" cx="-920" cy="1408" r="60"/>
	</g>
</g>
<g id="lines" class="st1">
	<g class="st2">
		
			<rect x="-961.9" y="1366" transform="matrix(0.7071 -0.7071 0.7071 0.7071 -1265.0243 -238.1302)" class="st4" width="83.9" height="83.9"/>
		<path d="M-920,1349.4l58.6,58.6l-58.6,58.6l-58.6-58.6L-920,1349.4 M-920,1348l-60,60l60,60l60-60L-920,1348L-920,1348z"/>
	</g>
	<polyline class="st5" points="-960,1388 -920,1405 -880,1388 	"/>
	<line class="st5" x1="-920" y1="1468" x2="-920" y2="1405"/>
</g>
<g id="shapes" class="st1">
	<polygon class="st6" points="-960,1388 -920,1405 -880,1388 -920,1348 	"/>
	<polygon class="st7" points="-920,1468 -920,1405 -960,1388 -980,1408 	"/>
	<polygon class="st8" points="-860,1408 -920,1468 -920,1405 -880,1388 	"/>
</g>
<g id="backgrounds" class="st1">
	<g class="st2">
		
			<rect x="-962.4" y="1365.5" transform="matrix(0.7071 -0.7071 0.7071 0.7071 -1265.0243 -238.1302)" class="st9" width="84.9" height="84.9"/>
	</g>
</g>
<g id="shapes_copy" class="st1">
	<g class="st2">
		<polygon class="st10" points="-960,1388 -920,1405 -880,1388 -920,1348 		"/>
	</g>
	<g class="st2">
		<polygon class="st11" points="-920,1468 -920,1405 -960,1388 -980,1408 		"/>
	</g>
	<g class="st2">
		<polygon class="st12" points="-860,1408 -920,1468 -920,1405 -880,1388 		"/>
	</g>
</g>
</svg>
