<?xml version="1.0" encoding="utf-8"?>
<!-- Generator: Adobe Illustrator 19.0.0, SVG Export Plug-In . SVG Version: 6.00 Build 0)  -->
<svg version="1.1" id="Layer_1" xmlns="http://www.w3.org/2000/svg" xmlns:xlink="http://www.w3.org/1999/xlink" x="0px" y="0px"
	 viewBox="-245 337 120 120" style="enable-background:new -245 337 120 120;" xml:space="preserve">
<style type="text/css">
	.st0{fill:#331111;}
	.st1{display:none;}
	.st2{display:inline;}
	.st3{fill:#D8D8D8;}
	.st4{fill:#FFFFFF;}
	.st5{display:inline;fill:none;stroke:#000000;stroke-miterlimit:10;}
	.st6{display:inline;opacity:0.12;enable-background:new    ;}
	.st7{display:inline;opacity:0.26;enable-background:new    ;}
	.st8{display:inline;opacity:0.18;enable-background:new    ;}
	.st9{display:inline;opacity:0.32;enable-background:new    ;}
	.st10{display:inline;opacity:0.47;enable-background:new    ;}
	.st11{display:inline;opacity:0.4;enable-background:new    ;}
	.st12{display:inline;opacity:0.62;enable-background:new    ;}
	.st13{fill:#2D0101;}
	.st14{fill:#B72121;}
	.st15{fill:#A81B1B;}
	.st16{fill:#9E1212;}
	.st17{fill:#8C1010;}
	.st18{fill:#7F0F0F;}
	.st19{fill:#720F0F;}
	.st20{fill:#680F0F;}
	.st21{fill:#C62828;}
</style>
<path class="st0" d="M-137.1,363l-42.3-24.4c-3.4-2-7.6-2-11.1,0l-42.3,24.5c-3.4,2-5.5,5.6-5.5,9.6v48.9c0,3.9,2.1,7.6,5.5,9.6
	l42.3,24.4c3.4,2,7.6,2,11.1,0l42.3-24.5c3.4-2,5.5-5.6,5.5-9.6v-48.9C-131.6,368.6-133.7,364.9-137.1,363z"/>
<g id="circle_guides" class="st1">
	<g class="st2">
		<circle class="st3" cx="-185" cy="397" r="60"/>
	</g>
</g>
<g id="lines" class="st1">
	<g class="st2">
		<polygon class="st4" points="-236.5,426.7 -236.5,367.3 -185,337.6 -133.5,367.3 -133.5,426.7 -185,456.4 		"/>
		<path d="M-185,338.2l51,29.4v58.8l-51,29.4l-51-29.4v-58.8L-185,338.2 M-185,337l-52,30v60l52,30l52-30v-60L-185,337L-185,337z"/>
	</g>
	<polygon class="st5" points="-185,362 -215.3,414.5 -154.7,414.5 	"/>
	<polygon class="st5" points="-237,367 -185,362 -133,367 -154.7,414.5 -185,457 -215.3,414.5 	"/>
	<line class="st5" x1="-185" y1="337" x2="-185" y2="362"/>
	<line class="st5" x1="-133" y1="427" x2="-154.7" y2="414.5"/>
	<line class="st5" x1="-237" y1="427" x2="-215.3" y2="414.5"/>
</g>
<g id="shapes" class="st1">
	<polygon class="st6" points="-237,367 -185,362 -185,337 	"/>
	<polygon class="st7" points="-237,427 -215.3,414.5 -237,367 	"/>
	<polygon class="st8" points="-185,362 -215.3,414.5 -237,367 	"/>
	<polygon class="st8" points="-133,367 -185,362 -185,337 	"/>
	<polygon class="st7" points="-154.7,414.5 -185,362 -215.3,414.5 	"/>
	<polygon class="st9" points="-133,367 -154.7,414.5 -185,362 	"/>
	<polygon class="st10" points="-133,427 -133,367 -154.7,414.5 	"/>
	<polygon class="st10" points="-185,457 -154.7,414.5 -215.3,414.5 	"/>
	<polygon class="st11" points="-237,427 -185,457 -215.3,414.5 	"/>
	<polygon class="st12" points="-133,427 -154.7,414.5 -185,457 	"/>
</g>
<g id="backgrounds" class="st1">
	<g class="st2">
		<polygon class="st13" points="-237,367 -237,427 -185,457 -133,427 -133,367 -185,337 		"/>
	</g>
</g>
<g id="shapes_copy" class="st1">
	<g class="st2">
		<polygon class="st14" points="-185,362 -215.3,414.5 -237,367 		"/>
		<polygon class="st14" points="-133,367 -185,362 -185,337 		"/>
	</g>
	<g class="st2">
		<polygon class="st15" points="-154.7,414.5 -185,362 -215.3,414.5 		"/>
	</g>
	<g class="st2">
		<polygon class="st16" points="-237,427 -215.3,414.5 -237,367 		"/>
	</g>
	<g class="st2">
		<polygon class="st17" points="-133,367 -154.7,414.5 -185,362 		"/>
	</g>
	<g class="st2">
		<polygon class="st18" points="-237,427 -185,457 -215.3,414.5 		"/>
	</g>
	<g class="st2">
		<polygon class="st19" points="-133,427 -133,367 -154.7,414.5 		"/>
		<polygon class="st19" points="-185,457 -154.7,414.5 -215.3,414.5 		"/>
	</g>
	<g class="st2">
		<polygon class="st20" points="-133,427 -154.7,414.5 -185,457 		"/>
	</g>
	<g class="st2">
		<polygon class="st21" points="-237,367 -185,362 -185,337 		"/>
	</g>
</g>
<g id="shapes_copy_2">
	<polygon class="st14" points="-234.4,368.5 -186.8,363.9 -214.6,412 	"/>
	<polygon class="st14" points="-184,361.9 -184,339.9 -138.5,366.3 	"/>
	<polygon class="st15" points="-213,413.2 -185,364.7 -157,413.2 	"/>
	<polygon class="st16" points="-234.9,372.1 -215.9,413.7 -234.9,424.7 	"/>
	<polygon class="st17" points="-183.2,363.9 -135.6,368.5 -155.4,412 	"/>
	<polygon class="st18" points="-233.9,426.4 -215,415.4 -188.4,452.6 	"/>
	<polygon class="st19" points="-154.1,413.7 -135.1,372.1 -135.1,424.7 	"/>
	<polygon class="st19" points="-212.8,415.1 -157.2,415.1 -185,454.1 	"/>
	<polygon class="st20" points="-155,415.4 -136.1,426.4 -181.6,452.6 	"/>
	<polygon class="st21" points="-186,339.9 -186,361.9 -231.5,366.3 	"/>
</g>
</svg>
