<?xml version="1.0" encoding="utf-8"?>
<!-- Generator: Adobe Illustrator 19.0.0, SVG Export Plug-In . SVG Version: 6.00 Build 0)  -->
<svg version="1.1" baseProfile="basic" id="Layer_1"
	 xmlns="http://www.w3.org/2000/svg" xmlns:xlink="http://www.w3.org/1999/xlink" x="0px" y="0px" viewBox="-245 337 120 120"
	 xml:space="preserve">
<style type="text/css">
	.st0{fill:#331111;}
	.st1{display:none;}
	.st2{display:inline;}
	.st3{fill:#D8D8D8;}
	.st4{fill:#FFFFFF;}
	.st5{display:inline;opacity:0.26;}
	.st6{fill:#2D0101;}
	.st7{fill:#A81B1B;}
</style>
<g>
	<path class="st0" d="M-238.4,456.4c-3.3,0-6-2.7-6-6V343.6c0-3.3,2.7-6,6-6h106.8c3.3,0,6,2.7,6,6v106.8c0,3.3-2.7,6-6,6
		L-238.4,456.4L-238.4,456.4z"/>
</g>
<g id="circle_guides" class="st1">
	<g class="st2">
		<circle class="st3" cx="-675" cy="1071" r="60"/>
	</g>
</g>
<g id="lines" class="st1">
	<g class="st2">
		<rect x="-716.9" y="1029.1" class="st4" width="83.9" height="83.9"/>
		<path d="M-633.6,1029.6v82.9h-82.8v-82.9H-633.6 M-632.6,1028.6h-84.8v84.9h84.9L-632.6,1028.6L-632.6,1028.6z"/>
	</g>
</g>
<g id="shapes" class="st1">
	<rect x="-717.4" y="1028.6" class="st5" width="84.9" height="84.9"/>
</g>
<g id="backgrounds" class="st1">
	<g class="st2">
		<rect x="-717.4" y="1028.6" class="st6" width="84.9" height="84.9"/>
	</g>
</g>
<g id="shapes_copy" class="st1">
	<g class="st2">
		<rect x="-717.4" y="1028.6" class="st7" width="84.9" height="84.9"/>
	</g>
</g>
</svg>
