<svg xmlns="http://www.w3.org/2000/svg" xmlns:xlink="http://www.w3.org/1999/xlink" width="100" height="100" viewBox="0 0 100 100"><g><g transform="translate(50 50) scale(0.69 0.69) rotate(0) translate(-50 -50)" style="fill:#FFFFFF"><svg fill="#FFFFFF" xmlns:rdf="http://www.w3.org/1999/02/22-rdf-syntax-ns#" xmlns:inkscape="http://www.inkscape.org/namespaces/inkscape" xmlns:cc="http://creativecommons.org/ns#" xmlns:dc="http://purl.org/dc/elements/1.1/" xmlns:sodipodi="http://sodipodi.sourceforge.net/DTD/sodipodi-0.dtd" xmlns:svg="http://www.w3.org/2000/svg" xmlns="http://www.w3.org/2000/svg" xmlns:xlink="http://www.w3.org/1999/xlink" version="1.1" x="0px" y="0px" viewBox="40 40 100 100" enable-background="new 40 40 100 100" xml:space="preserve"><g><g transform="matrix(1.1679092,0,0,1.1679092,-274.931,-137.53749)"><path fill="#FFFFFF" d="M313.653,154.602l-26.488,55.612l24.356,15.89l26.354-15.928    L313.653,154.602z"></path><path fill="#FFFFFF" d="M314.9,153.687l24.49,55.919l14.175-4.584l0.915-22.612    L314.9,153.687z"></path><path fill="#FFFFFF" d="M312.359,227.393v8.568l40.76-28.762l-13.608,3.825    L312.359,227.393z"></path><path fill="#FFFFFF" d="M312.359,153.927l-26.756,55.732l-13.925-5.99l-1.229-22.679    L312.359,153.927z"></path><path fill="#FFFFFF" d="M310.517,227.213v8.75l-39.019-30.157l13.513,5.275    L310.517,227.213z"></path></g></g></svg></g></g></svg>