<svg xmlns="http://www.w3.org/2000/svg" xmlns:xlink="http://www.w3.org/1999/xlink" width="100" height="100" viewBox="0 0 100 100"><g><g transform="translate(50 50) scale(0.69 0.69) rotate(0) translate(-50 -50)" style="fill:#FFFFFF"><svg fill="#FFFFFF" xmlns="http://www.w3.org/2000/svg" xmlns:xlink="http://www.w3.org/1999/xlink" version="1.1" x="0px" y="0px" viewBox="0 0 100 100" enable-background="new 0 0 100 100" xml:space="preserve"><path d="M14.2,26.6h5.4v51.7c0,7.1,5.8,12.8,12.8,12.8h35.2c7.1,0,12.8-5.8,12.8-12.8V26.6h5.4c1.7,0,3.1-1.4,3.1-3.1  c0-1.7-1.4-3.1-3.1-3.1H67.7v-4.7c0-3.8-3.1-6.9-6.9-6.9H39.2c-3.8,0-6.9,3.1-6.9,6.9v4.7H14.2c-1.7,0-3.1,1.4-3.1,3.1  C11.1,25.3,12.5,26.6,14.2,26.6z M38.5,15.7c0-0.4,0.3-0.6,0.6-0.6h21.7c0.4,0,0.6,0.3,0.6,0.6v4.7h-23V15.7z M25.8,26.6h48.4v51.7  c0,3.7-3,6.6-6.6,6.6H32.4c-3.7,0-6.6-3-6.6-6.6V26.6z M46.9,75.6V36c0-1.7,1.4-3.1,3.1-3.1c1.7,0,3.1,1.4,3.1,3.1v39.5  c0,1.7-1.4,3.1-3.1,3.1C48.3,78.7,46.9,77.3,46.9,75.6z M61.5,75.6V36c0-1.7,1.4-3.1,3.1-3.1c1.7,0,3.1,1.4,3.1,3.1v39.5  c0,1.7-1.4,3.1-3.1,3.1C62.9,78.7,61.5,77.3,61.5,75.6z M32.3,75.6V36c0-1.7,1.4-3.1,3.1-3.1s3.1,1.4,3.1,3.1v39.5  c0,1.7-1.4,3.1-3.1,3.1S32.3,77.3,32.3,75.6z"></path></svg></g></g></svg>