<?xml version="1.0" encoding="utf-8"?>
<!-- Generator: Adobe Illustrator 19.0.0, SVG Export Plug-In . SVG Version: 6.00 Build 0)  -->
<svg version="1.1" baseProfile="basic"
	 id="Layer_1" xmlns:cc="http://creativecommons.org/ns#" xmlns:rdf="http://www.w3.org/1999/02/22-rdf-syntax-ns#" xmlns:svg="http://www.w3.org/2000/svg" xmlns:sodipodi="http://sodipodi.sourceforge.net/DTD/sodipodi-0.dtd" xmlns:inkscape="http://www.inkscape.org/namespaces/inkscape" xmlns:dc="http://purl.org/dc/elements/1.1/"
	 xmlns="http://www.w3.org/2000/svg" xmlns:xlink="http://www.w3.org/1999/xlink" x="0px" y="0px" viewBox="-255 347 100 100"
	 xml:space="preserve">
<style type="text/css">
	.st0{opacity:0.6;}
	.st1{opacity:0.1;}
	.st2{opacity:0.2;}
	.st3{opacity:0.3;}
	.st4{opacity:0;}
	.st5{opacity:0.15;}
</style>
<g>
	<path class="st0" d="M-159,378.2l-42.2-28.9c-2.4-1.6-5.5-1.6-7.8,0l-42.1,29.4c-1.9,1.3-3,3.4-2.9,5.7l0.3,22.5
		c0,2.1,1,4.1,2.7,5.4l41.8,32c2.5,1.9,5.9,1.9,8.4,0l42.3-32.9c1.7-1.3,2.6-3.3,2.6-5.4v-22C-156,381.6-157.1,379.5-159,378.2z
		 M-251,383l44.5-31.7l-28.3,62.2l-16.3-6.3V383z M-250.6,409.3l15.2,5.9l29,18l0.3,9.8L-250.6,409.3z M-205.3,431.9l-27.7-17.7
		l28-62.1l28.7,62.1L-205.3,431.9z M-204.1,442.9l-0.3-9.6l29.8-18.3l15.5-5.8L-204.1,442.9z M-159,407.5l-15.7,6l-29-62.5
		l44.7,31.2V407.5z"/>
	<polygon class="st1" points="-205,352.1 -233,414.2 -205.3,431.9 -176.3,414.1 	"/>
	<polygon class="st2" points="-174.7,413.5 -159,407.5 -159,382.3 -203.7,351.1 	"/>
	<polygon class="st3" points="-204.3,433.4 -204.1,442.9 -159,409.3 -174.5,415.1 	"/>
	<polygon class="st4" points="-206.5,351.3 -251,383 -251,407.3 -234.7,413.6 	"/>
	<polygon class="st5" points="-235.4,415.2 -250.6,409.3 -206.1,442.9 -206.4,433.2 	"/>
</g>
</svg>
