<?xml version="1.0" encoding="utf-8"?>
<!-- Generator: Adobe Illustrator 19.0.0, SVG Export Plug-In . SVG Version: 6.00 Build 0)  -->
<svg version="1.1" baseProfile="basic" id="Layer_1"
	 xmlns="http://www.w3.org/2000/svg" xmlns:xlink="http://www.w3.org/1999/xlink" x="0px" y="0px" viewBox="-245 337 120 120"
	 xml:space="preserve">
<style type="text/css">
	.st0{display:none;}
	.st1{display:inline;}
	.st2{fill:#D8D8D8;}
	.st3{fill:#FFFFFF;}
	.st4{display:inline;fill:none;stroke:#000000;stroke-miterlimit:10;}
	.st5{display:inline;opacity:0.26;}
	.st6{display:inline;opacity:0.12;}
	.st7{display:inline;opacity:0.47;}
	.st8{display:inline;opacity:0.55;}
	.st9{display:inline;opacity:0.4;}
	.st10{fill:#2D0101;}
	.st11{fill:#A81B1B;}
	.st12{fill:#9E1212;}
	.st13{fill:#7F0F0F;}
	.st14{fill:#720F0F;}
	.st15{fill:#680F0F;}
	.st16{fill:#C62828;}
	.st17{opacity:0.6;}
	.st18{opacity:0.1;}
	.st19{opacity:0.15;}
	.st20{opacity:0.25;}
	.st21{opacity:0.2;}
	.st22{opacity:0;}
</style>
<g id="circle_guides" class="st0">
	<g class="st1">
		<circle class="st2" cx="-430" cy="734" r="60"/>
	</g>
</g>
<g id="lines" class="st0">
	<g class="st1">
		<polygon class="st3" points="-465,782.1 -486.6,752.4 -486.6,715.6 -465,685.9 -430,674.5 -395,685.9 -373.4,715.6 -373.4,752.4 
			-395,782.1 -430,793.5 		"/>
		<path d="M-430,675.1l34.6,11.3l21.4,29.5v36.4l-21.4,29.5l-34.6,11.1l-34.6-11.3l-21.5-29.4v-36.4l21.4-29.5L-430,675.1 M-430,674
			l-35.3,11.5l-21.8,30v37.1l21.8,30L-430,794l35.3-11.5l21.8-30v-37l-21.8-30L-430,674L-430,674z"/>
	</g>
	<polygon class="st4" points="-430,701.7 -460.7,724 -449,760.1 -411,760.1 -399.3,724 	"/>
	<line class="st4" x1="-430" y1="701.7" x2="-430" y2="674"/>
	<line class="st4" x1="-399.3" y1="724" x2="-372.9" y2="715.5"/>
	<line class="st4" x1="-411" y1="760.1" x2="-394.7" y2="782.5"/>
	<line class="st4" x1="-449" y1="760.1" x2="-465.3" y2="782.5"/>
	<line class="st4" x1="-460.7" y1="724" x2="-487.1" y2="715.5"/>
</g>
<g id="shapes" class="st0">
	<polygon class="st5" points="-460.7,724 -430,701.7 -399.3,724 -411,760.1 -449,760.1 	"/>
	<polygon class="st6" points="-487.1,715.5 -465.3,685.5 -430,674 -430,701.7 -460.7,724 	"/>
	<polygon class="st5" points="-487.1,752.5 -487.1,715.5 -460.7,724 -449,760.1 -465.3,782.5 	"/>
	<polygon class="st7" points="-430,794 -394.7,782.5 -411,760.1 -449,760.1 -465.3,782.5 	"/>
	<polygon class="st8" points="-372.9,715.5 -399.3,724 -411,760.1 -394.7,782.5 -372.9,752.5 	"/>
	<polygon class="st9" points="-394.7,685.5 -372.9,715.5 -399.3,724 -430,701.7 -430,674 	"/>
</g>
<g id="backgrounds" class="st0">
	<g class="st1">
		<polygon class="st10" points="-430,674 -465.3,685.5 -487.1,715.5 -487.1,752.5 -465.3,782.5 -430,794 -394.7,782.5 -372.9,752.5 
			-372.9,715.5 -394.7,685.5 		"/>
	</g>
</g>
<g id="shapes_copy" class="st0">
	<g class="st1">
		<polygon class="st11" points="-460.7,724 -430,701.7 -399.3,724 -411,760.1 -449,760.1 		"/>
	</g>
	<g class="st1">
		<polygon class="st12" points="-487.1,752.5 -487.1,715.5 -460.7,724 -449,760.1 -465.3,782.5 		"/>
	</g>
	<g class="st1">
		<polygon class="st13" points="-394.7,685.5 -372.9,715.5 -399.3,724 -430,701.7 -430,674 		"/>
	</g>
	<g class="st1">
		<polygon class="st14" points="-430,794 -394.7,782.5 -411,760.1 -449,760.1 -465.3,782.5 		"/>
	</g>
	<g class="st1">
		<polygon class="st15" points="-372.9,715.5 -399.3,724 -411,760.1 -394.7,782.5 -372.9,752.5 		"/>
	</g>
	<g class="st1">
		<polygon class="st16" points="-487.1,715.5 -465.3,685.5 -430,674 -430,701.7 -460.7,724 		"/>
	</g>
</g>
<g>
	<path class="st17" d="M-129.5,376.2l-18.4-25.3c-1-1.4-3-2.9-4.6-3.4l-29.7-9.7c-1.6-0.5-4.1-0.5-5.7,0l-29.7,9.7
		c-1.6,0.6-3.6,2.1-4.6,3.4l-18.4,25.3c-1,1.3-1.8,3.8-1.8,5.4v31.2c0,1.6,0.8,4.1,1.8,5.4l18.4,25.3c1,1.4,3,2.9,4.6,3.4l29.7,9.7
		c1.6,0.5,4.1,0.5,5.7,0l29.7-9.7c1.6-0.6,3.6-2.1,4.6-3.4l18.4-25.3c1-1.3,1.8-3.8,1.8-5.4v-31.2
		C-127.7,380-128.5,377.5-129.5,376.2z M-184,341l32,10.4l19.8,27.3l-23.5,7.6l-28.3-20.7V341z M-156.9,387.7l-10.8,33.1h-34.6
		l-10.8-33.1l28.1-20.4L-156.9,387.7z M-218,351.4l32-10.4v24.6l-28.3,20.7l-23.5-7.6L-218,351.4z M-218.6,441.5l-19.9-27.3v-33.7
		l23.5,7.6l10.8,33.4L-218.6,441.5z M-185,453l-32-10.4l14.5-19.9h35l14.5,19.9L-185,453z M-131.5,414.2l-19.9,27.3l-14.4-20
		l10.8-33.4l23.5-7.6V414.2z"/>
	<polygon class="st18" points="-202.3,420.8 -167.7,420.8 -156.9,387.7 -185,367.3 -213.1,387.7 	"/>
	<polygon class="st19" points="-215,388.1 -238.5,380.5 -238.5,414.2 -218.6,441.5 -204.2,421.5 	"/>
	<polygon class="st19" points="-132.2,378.7 -152,351.4 -184,341 -184,365.6 -155.7,386.3 	"/>
	<polygon class="st20" points="-202.5,422.7 -217,442.6 -185,453 -153,442.6 -167.5,422.7 	"/>
	<polygon class="st21" points="-165.8,421.5 -151.4,441.5 -131.5,414.2 -131.5,380.5 -155,388.1 	"/>
	<polygon class="st22" points="-186,365.6 -186,341 -218,351.4 -237.8,378.7 -214.3,386.3 	"/>
</g>
</svg>
