<?xml version="1.0" encoding="utf-8"?>
<!-- Generator: Adobe Illustrator 19.0.0, SVG Export Plug-In . SVG Version: 6.00 Build 0)  -->
<svg version="1.1" baseProfile="basic" id="Layer_1"
	 xmlns="http://www.w3.org/2000/svg" xmlns:xlink="http://www.w3.org/1999/xlink" x="0px" y="0px" viewBox="-245 337 120 120"
	 xml:space="preserve">
<style type="text/css">
	.st0{fill:#331111;}
	.st1{display:none;}
	.st2{display:inline;}
	.st3{fill:#D8D8D8;}
	.st4{fill:#FFFFFF;}
	.st5{display:inline;fill:none;stroke:#000000;stroke-miterlimit:10;}
	.st6{display:inline;opacity:0.26;}
	.st7{display:inline;opacity:0.12;}
	.st8{display:inline;opacity:0.47;}
	.st9{display:inline;opacity:0.55;}
	.st10{display:inline;opacity:0.4;}
	.st11{fill:#2D0101;}
	.st12{fill:#A81B1B;}
	.st13{fill:#9E1212;}
	.st14{fill:#7F0F0F;}
	.st15{fill:#720F0F;}
	.st16{fill:#680F0F;}
	.st17{fill:#C62828;}
</style>
<g>
	<path class="st0" d="M-182.1,456.6c-1.6,0.5-4.1,0.5-5.7,0l-29.7-9.7c-1.6-0.5-3.6-2-4.6-3.4l-18.4-25.3c-1-1.3-1.8-3.8-1.8-5.4
		v-31.2c0-1.6,0.8-4.1,1.8-5.4l18.4-25.3c1-1.3,3-2.8,4.6-3.4l29.7-9.7c1.6-0.5,4.1-0.5,5.7,0l29.7,9.7c1.6,0.5,3.6,2,4.6,3.4
		l18.4,25.3c1,1.3,1.8,3.8,1.8,5.4v31.2c0,1.6-0.8,4.1-1.8,5.4l-18.4,25.3c-1,1.3-3,2.8-4.6,3.4L-182.1,456.6z"/>
</g>
<g id="circle_guides" class="st1">
	<g class="st2">
		<circle class="st3" cx="-430" cy="734" r="60"/>
	</g>
</g>
<g id="lines" class="st1">
	<g class="st2">
		<polygon class="st4" points="-465,782.1 -486.6,752.4 -486.6,715.6 -465,685.9 -430,674.5 -395,685.9 -373.4,715.6 -373.4,752.4 
			-395,782.1 -430,793.5 		"/>
		<path d="M-430,675.1l34.6,11.3l21.4,29.5v36.4l-21.4,29.5l-34.6,11.1l-34.6-11.3l-21.5-29.4v-36.4l21.4-29.5L-430,675.1 M-430,674
			l-35.3,11.5l-21.8,30v37.1l21.8,30L-430,794l35.3-11.5l21.8-30v-37l-21.8-30L-430,674L-430,674z"/>
	</g>
	<polygon class="st5" points="-430,701.7 -460.7,724 -449,760.1 -411,760.1 -399.3,724 	"/>
	<line class="st5" x1="-430" y1="701.7" x2="-430" y2="674"/>
	<line class="st5" x1="-399.3" y1="724" x2="-372.9" y2="715.5"/>
	<line class="st5" x1="-411" y1="760.1" x2="-394.7" y2="782.5"/>
	<line class="st5" x1="-449" y1="760.1" x2="-465.3" y2="782.5"/>
	<line class="st5" x1="-460.7" y1="724" x2="-487.1" y2="715.5"/>
</g>
<g id="shapes" class="st1">
	<polygon class="st6" points="-460.7,724 -430,701.7 -399.3,724 -411,760.1 -449,760.1 	"/>
	<polygon class="st7" points="-487.1,715.5 -465.3,685.5 -430,674 -430,701.7 -460.7,724 	"/>
	<polygon class="st6" points="-487.1,752.5 -487.1,715.5 -460.7,724 -449,760.1 -465.3,782.5 	"/>
	<polygon class="st8" points="-430,794 -394.7,782.5 -411,760.1 -449,760.1 -465.3,782.5 	"/>
	<polygon class="st9" points="-372.9,715.5 -399.3,724 -411,760.1 -394.7,782.5 -372.9,752.5 	"/>
	<polygon class="st10" points="-394.7,685.5 -372.9,715.5 -399.3,724 -430,701.7 -430,674 	"/>
</g>
<g id="backgrounds" class="st1">
	<g class="st2">
		<polygon class="st11" points="-430,674 -465.3,685.5 -487.1,715.5 -487.1,752.5 -465.3,782.5 -430,794 -394.7,782.5 -372.9,752.5 
			-372.9,715.5 -394.7,685.5 		"/>
	</g>
</g>
<g id="shapes_copy" class="st1">
	<g class="st2">
		<polygon class="st12" points="-460.7,724 -430,701.7 -399.3,724 -411,760.1 -449,760.1 		"/>
	</g>
	<g class="st2">
		<polygon class="st13" points="-487.1,752.5 -487.1,715.5 -460.7,724 -449,760.1 -465.3,782.5 		"/>
	</g>
	<g class="st2">
		<polygon class="st14" points="-394.7,685.5 -372.9,715.5 -399.3,724 -430,701.7 -430,674 		"/>
	</g>
	<g class="st2">
		<polygon class="st15" points="-430,794 -394.7,782.5 -411,760.1 -449,760.1 -465.3,782.5 		"/>
	</g>
	<g class="st2">
		<polygon class="st16" points="-372.9,715.5 -399.3,724 -411,760.1 -394.7,782.5 -372.9,752.5 		"/>
	</g>
	<g class="st2">
		<polygon class="st17" points="-487.1,715.5 -465.3,685.5 -430,674 -430,701.7 -460.7,724 		"/>
	</g>
</g>
</svg>
