<?xml version="1.0" encoding="utf-8"?>
<!-- Generator: Adobe Illustrator 19.0.0, SVG Export Plug-In . SVG Version: 6.00 Build 0)  -->
<svg version="1.1" baseProfile="basic" id="Layer_1"
	 xmlns="http://www.w3.org/2000/svg" xmlns:xlink="http://www.w3.org/1999/xlink" x="0px" y="0px" viewBox="-245 337 120 120"
	 xml:space="preserve">
<style type="text/css">
	.st0{display:none;}
	.st1{display:inline;}
	.st2{fill:#D8D8D8;}
	.st3{fill:#FFFFFF;}
	.st4{display:inline;fill:none;stroke:#000000;stroke-miterlimit:10;}
	.st5{fill:#2D0101;}
	.st6{fill:#B72121;}
	.st7{fill:#A81B1B;}
	.st8{fill:#9E1212;}
	.st9{fill:#8C1010;}
	.st10{fill:#7F0F0F;}
	.st11{fill:#720F0F;}
	.st12{fill:#680F0F;}
	.st13{fill:#C62828;}
	.st14{fill:#331111;}
</style>
<g id="circle_guides" class="st0">
	<g class="st1">
		<circle class="st2" cx="-920" cy="1408" r="60"/>
	</g>
</g>
<g id="lines" class="st0">
	<g class="st1">
		<polygon class="st3" points="-971.5,1437.7 -971.5,1378.3 -920,1348.6 -868.5,1378.3 -868.5,1437.7 -920,1467.4 		"/>
		<path d="M-920,1349.2l51,29.4v58.8l-51,29.4l-51-29.4v-58.8L-920,1349.2 M-920,1348l-52,30v60l52,30l52-30v-60L-920,1348
			L-920,1348z"/>
	</g>
	<polygon class="st4" points="-920,1373 -950.3,1425.5 -889.7,1425.5 	"/>
	<polygon class="st4" points="-972,1378 -920,1373 -868,1378 -889.7,1425.5 -920,1468 -950.3,1425.5 	"/>
	<line class="st4" x1="-920" y1="1348" x2="-920" y2="1373"/>
	<line class="st4" x1="-868" y1="1438" x2="-889.7" y2="1425.5"/>
	<line class="st4" x1="-972" y1="1438" x2="-950.3" y2="1425.5"/>
</g>
<g id="shapes" class="st0">
	
		<image style="display:inline;overflow:visible;" width="52" height="30" xlink:href="B508E47F5D6B7BF2.png"  transform="matrix(1 0 0 1 -972 1348)">
	</image>
	
		<image style="display:inline;overflow:visible;" width="22" height="60" xlink:href="B508E47F5D6B7BF6.png"  transform="matrix(1 0 0 1 -972 1378)">
	</image>
	
		<image style="display:inline;overflow:visible;" width="52" height="53" xlink:href="B508E47F5D6B7BF1.png"  transform="matrix(1 0 0 1 -972 1373)">
	</image>
	
		<image style="display:inline;overflow:visible;" width="52" height="30" xlink:href="B508E47F5D6B7BF3.png"  transform="matrix(1 0 0 1 -920 1348)">
	</image>
	
		<image style="display:inline;overflow:visible;" width="62" height="53" xlink:href="B508E47F5D6B7BF0.png"  transform="matrix(1 0 0 1 -951 1373)">
	</image>
	
		<image style="display:inline;overflow:visible;" width="52" height="53" xlink:href="B508E47F5D6B7BFE.png"  transform="matrix(1 0 0 1 -920 1373)">
	</image>
	
		<image style="display:inline;overflow:visible;" width="22" height="60" xlink:href="B508E47F5D6B7BF5.png"  transform="matrix(1 0 0 1 -890 1378)">
	</image>
	
		<image style="display:inline;overflow:visible;" width="62" height="43" xlink:href="B508E47F5D6B7BF7.png"  transform="matrix(1 0 0 1 -951 1425)">
	</image>
	
		<image style="display:inline;overflow:visible;" width="52" height="43" xlink:href="B508E47F5D6B7BF4.png"  transform="matrix(1 0 0 1 -972 1425)">
	</image>
	
		<image style="display:inline;overflow:visible;" width="52" height="43" xlink:href="2A4906688088EA45.png"  transform="matrix(1 0 0 1 -920 1425)">
	</image>
</g>
<g id="backgrounds" class="st0">
	<g class="st1">
		<polygon class="st5" points="-972,1378 -972,1438 -920,1468 -868,1438 -868,1378 -920,1348 		"/>
	</g>
</g>
<g id="shapes_copy" class="st0">
	<g class="st1">
		<polygon class="st6" points="-920,1373 -950.3,1425.5 -972,1378 		"/>
		<polygon class="st6" points="-868,1378 -920,1373 -920,1348 		"/>
	</g>
	<g class="st1">
		<polygon class="st7" points="-889.7,1425.5 -920,1373 -950.3,1425.5 		"/>
	</g>
	<g class="st1">
		<polygon class="st8" points="-972,1438 -950.3,1425.5 -972,1378 		"/>
	</g>
	<g class="st1">
		<polygon class="st9" points="-868,1378 -889.7,1425.5 -920,1373 		"/>
	</g>
	<g class="st1">
		<polygon class="st10" points="-972,1438 -920,1468 -950.3,1425.5 		"/>
	</g>
	<g class="st1">
		<polygon class="st11" points="-868,1438 -868,1378 -889.7,1425.5 		"/>
		<polygon class="st11" points="-920,1468 -889.7,1425.5 -950.3,1425.5 		"/>
	</g>
	<g class="st1">
		<polygon class="st12" points="-868,1438 -889.7,1425.5 -920,1468 		"/>
	</g>
	<g class="st1">
		<polygon class="st13" points="-972,1378 -920,1373 -920,1348 		"/>
	</g>
</g>
<circle class="st14" cx="-185" cy="397" r="59.3"/>
</svg>
