<?xml version="1.0" encoding="utf-8"?>
<!-- Generator: Adobe Illustrator 19.0.0, SVG Export Plug-In . SVG Version: 6.00 Build 0)  -->
<svg version="1.1" baseProfile="basic" id="Layer_1"
	 xmlns="http://www.w3.org/2000/svg" xmlns:xlink="http://www.w3.org/1999/xlink" x="0px" y="0px" viewBox="-245 347 120 99"
	 xml:space="preserve">
<style type="text/css">
	.st0{fill:#331111;}
	.st1{display:none;}
	.st2{display:inline;}
	.st3{fill:#D8D8D8;}
	.st4{fill:#FFFFFF;}
	.st5{fill:none;stroke:#000000;stroke-miterlimit:10;}
	.st6{display:inline;fill:none;stroke:#000000;stroke-miterlimit:10;}
	.st7{display:inline;opacity:0.32;}
	.st8{display:inline;opacity:0.18;}
	.st9{display:inline;opacity:0.47;}
	.st10{fill:#2D0101;}
	.st11{fill:#B72121;}
	.st12{fill:#8C1010;}
	.st13{fill:#720F0F;}
</style>
<g>
	<path class="st0" d="M-237.4,445.9c-4.9,0-6.9-3.5-4.4-7.7l52.2-87.9c2.5-4.3,6.7-4.3,9.2,0l52.2,87.9c2.5,4.3,0.5,7.7-4.4,7.7
		H-237.4z"/>
</g>
<g id="circle_guides" class="st1">
	<g class="st2">
		<circle class="st3" cx="-430" cy="744" r="60"/>
	</g>
</g>
<g id="lines" class="st1">
	<g class="st2">
		<polygon class="st4" points="-481.1,773.5 -430,685 -378.9,773.5 		"/>
		<path d="M-430,686l50.2,87h-100.4L-430,686 M-430,684l-52,90h104L-430,684L-430,684z"/>
	</g>
	<g class="st2">
		<line class="st5" x1="-430" y1="744" x2="-482" y2="774"/>
	</g>
	<line class="st6" x1="-430" y1="744" x2="-430" y2="684"/>
	<line class="st6" x1="-430" y1="744" x2="-378" y2="774"/>
</g>
<g id="shapes" class="st1">
	<polygon class="st7" points="-430,744 -430,684 -378,774 	"/>
	<polygon class="st8" points="-482,774 -430,744 -430,684 	"/>
	<polygon class="st9" points="-430,744 -378,774 -482,774 	"/>
</g>
<g id="backgrounds" class="st1">
	<g class="st2">
		<polygon class="st10" points="-430,684 -482,774 -378,774 		"/>
	</g>
</g>
<g id="shapes_copy" class="st1">
	<g class="st2">
		<polygon class="st11" points="-482,774 -430,744 -430,684 		"/>
	</g>
	<g class="st2">
		<polygon class="st12" points="-430,744 -430,684 -378,774 		"/>
	</g>
	<g class="st2">
		<polygon class="st13" points="-430,744 -378,774 -482,774 		"/>
	</g>
</g>
</svg>
