<?xml version="1.0" encoding="utf-8"?>
<!-- Generator: Adobe Illustrator 19.0.0, SVG Export Plug-In . SVG Version: 6.00 Build 0)  -->
<svg version="1.1" baseProfile="basic" id="Layer_1"
	 xmlns="http://www.w3.org/2000/svg" xmlns:xlink="http://www.w3.org/1999/xlink" x="0px" y="0px" viewBox="0 0 455.5 377.8"
	 xml:space="preserve">
<style type="text/css">
	.st0{fill-rule:evenodd;clip-rule:evenodd;fill:#ED1968;}
	.st1{fill-rule:evenodd;clip-rule:evenodd;fill:none;}
	.st2{fill:#ED1968;}
</style>
<path class="st0" d="M414.2,7.4c0.5,0,1,0,1.4,0c0,0.1,0,0.2,0,0.2c-3.8,10-7.7,20-11.5,30c-1.1,2.8-1.9,8.4-4.3,9.8
	c-17.2,3.8-34.4,7.5-51.6,11.3c-1.8,4.5-3.5,9-5.3,13.4c0.3,0,0.6,0,1,0c11.6-2.1,23.2-4.2,34.8-6.2c-3.3,8.5-6.6,17-9.8,25.4
	c-1,2.4-1.5,6.9-3.6,8.2c-12.1,2.5-24.2,5-36.2,7.4c-1.9,5.1-3.8,10.2-5.8,15.4c0.4,0,0.8,0,1.2,0c16.6-3,33.3-5.9,49.9-8.9
	c-4.5,11.9-9,23.8-13.4,35.8c-1.2,2.9-2,9.7-4.6,11.3c-34.9,6.8-69.8,13.6-104.6,20.4c17.5-51.4,35-102.9,52.6-154.3
	C340.9,20.2,377.6,13.8,414.2,7.4z"/>
<path class="st0" d="M246,10.5c4.9,0.2,9.5,0,13.9,1.4c9.6,3.1,26.6,14,23,28.8c-3.4,14.3-14.5,24.4-11.3,43.4c-0.1,0-0.2,0-0.2,0
	c-23.6-10.3-56.7,2.3-75.6-11.5C181.3,62.1,177.3,40,199.2,34c6.6-1.8,14.9-0.7,20.9,1.2c2,0.6,4.8,2.6,6.7,2.4c0-0.1,0-0.2,0-0.2
	c-1.3-2-1.6-6.8-1-9.8c1.8-8.9,7.2-13.5,15.1-16.1C242.6,11.1,244.3,10.8,246,10.5z"/>
<path class="st0" d="M271.9,89.9c0.5,1.3-7.3,18.2-8.6,21.4c-10.3,23.4-20.6,46.7-31,70.1c-23.2,4.5-46.4,9-69.6,13.4
	c7.1-29.2,14.2-58.4,21.4-87.6C213.3,101.4,242.6,95.7,271.9,89.9z"/>
<path class="st1" d="M109.6,99c-0.8,0.1-1.6,0.2-2.4,0.2c-8.9,23.4-17.8,46.7-26.6,70.1c17.1-2.8,36.9-24.5,43-39.1
	C129.7,115.4,130.5,98.7,109.6,99z"/>
<path class="st1" d="M109.6,99c-0.8,0.1-1.6,0.2-2.4,0.2c-8.9,23.4-17.8,46.7-26.6,70.1c17.1-2.8,36.9-24.5,43-39.1
	C129.7,115.4,130.5,98.7,109.6,99z"/>
<g>
	<path class="st2" d="M176.1,67.8c-7.2-12.1-22.9-16.7-41.3-16.3c-2.3,0.2-4.6,0.3-7,0.5c-5.7,1-11.4,1.9-17,2.9
		c-17.3,4.4-33.9,8.7-48.7,15.4c-16.9,50.2-33.8,100.3-50.6,150.5c0,0.1,0,0.2,0,0.2c17.7-0.1,36.3-4.9,50.9-9.8
		c45-15.2,79.5-36.5,102.5-73.4C174,122.9,188.7,88.9,176.1,67.8z M123.6,130.2c-6,14.6-25.9,36.3-43,39.1
		c8.9-23.4,17.8-46.7,26.6-70.1c0.8-0.1,1.6-0.2,2.4-0.2C130.5,98.7,129.7,115.4,123.6,130.2z"/>
</g>
<path class="st1" d="M388,210.6c-1.2,0.2-2.4,0.5-3.6,0.7c-7.4,20.2-14.9,40.3-22.3,60.5c16.5-6.3,28.9-18,35.3-34.3
	c2.7-6.7,5.3-20.6-1.2-25C394,211.1,391.2,211.2,388,210.6z"/>
<path class="st1" d="M388,210.6c-1.2,0.2-2.4,0.5-3.6,0.7c-7.4,20.2-14.9,40.3-22.3,60.5c16.5-6.3,28.9-18,35.3-34.3
	c2.7-6.7,5.3-20.6-1.2-25C394,211.1,391.2,211.2,388,210.6z"/>
<g>
	<path class="st2" d="M438.9,178.2c-6.5-8.9-17.8-11.5-33.6-11.3c-2.6,0.3-5.1,0.6-7.7,1c-5.3,1.1-10.6,2.2-15.8,3.4
		c-6.6,2.1-13.3,4.2-19.9,6.2c-3.9,1.7-7.8,3.4-11.8,5c-15.1,45.2-30.2,90.4-45.4,135.6c0,0.1,0,0.2,0,0.2c14.1,0,27-3.5,38.2-7
		c41.3-12.9,68.7-34.8,88.6-68.9C439.5,228.8,451.4,195.3,438.9,178.2z M397.4,237.5c-6.4,16.3-18.8,28.1-35.3,34.3
		c7.4-20.2,14.9-40.3,22.3-60.5c1.2-0.2,2.4-0.5,3.6-0.7c3.2,0.5,6,0.5,8.2,1.9C402.7,216.9,400.1,230.8,397.4,237.5z"/>
</g>
<path class="st0" d="M126.4,216.9c-0.5,21.1-1,42.2-1.4,63.4c16.2-25.2,32.5-50.4,48.7-75.6c17.4-3,34.9-6.1,52.3-9.1
	c0.1,0.1,0.2,0.2,0.2,0.2c-18.8,50.4-37.6,100.8-56.4,151.2c-14.9,3.2-29.8,6.4-44.6,9.6c0-0.3,0-0.6,0-1
	c8.2-25.5,16.3-51,24.5-76.6c-0.1,0-0.2,0-0.2,0c0,0.2,0,0.3,0,0.5c-13,21.8-26.1,43.5-39.1,65.3c-5.7,1-11.4,1.9-17,2.9
	c-0.1-0.1-0.2-0.2-0.2-0.2c0.8-17.5,1.6-35,2.4-52.6c-0.1,0-0.2,0-0.2,0c-6.8,21.6-13.6,43.2-20.4,64.8c-15.1,3-30.2,6.1-45.4,9.1
	c15.5-47.1,31-94.2,46.6-141.4C92.8,223.9,109.6,220.4,126.4,216.9z"/>
<path class="st1" d="M265.9,243c-5.9,11.8-11.8,23.7-17.8,35.5c4.8-0.8,9.6-1.6,14.4-2.4C263.6,265.1,264.8,254.1,265.9,243z"/>
<path class="st1" d="M265.9,243c-5.9,11.8-11.8,23.7-17.8,35.5c4.8-0.8,9.6-1.6,14.4-2.4C263.6,265.1,264.8,254.1,265.9,243z"/>
<g>
	<path class="st2" d="M309.8,183.3c-18.1,4.1-36.2,8.2-54.2,12.2c-27.1,47.3-54.2,94.6-81.4,141.8c-0.1,0.2-0.2,0.5-0.2,0.7
		c15.9-1.1,31.8-2.2,47.8-3.4c4-7.8,8-15.7,12-23.5c5.9-3.1,15.4-2.5,22.1-4.3c1,3.8-0.1,17.6-1.2,21.6c0.1,0.2,0.2,0.3,0.2,0.5
		c16.6-5,33.3-9.9,49.9-14.9c1.9-43.6,3.8-87.2,5.8-130.8C310.3,183.3,310,183.3,309.8,183.3z M262.5,276.2
		c-4.8,0.8-9.6,1.6-14.4,2.4c5.9-11.8,11.8-23.7,17.8-35.5C264.8,254.1,263.6,265.1,262.5,276.2z"/>
</g>
</svg>
