<svg xmlns="http://www.w3.org/2000/svg" xmlns:xlink="http://www.w3.org/1999/xlink" width="100" height="100" viewBox="0 0 100 100"><g><g transform="translate(50 50) scale(0.69 0.69) rotate(0) translate(-50 -50)" style="fill:#FFFFFF"><svg fill="#FFFFFF" xmlns="http://www.w3.org/2000/svg" xmlns:xlink="http://www.w3.org/1999/xlink" version="1.1" x="0px" y="0px" viewBox="0 0 100 100" enable-background="new 0 0 100 100" xml:space="preserve"><path d="M14.2,85.1h40.3c1.7,0,3.1-1.4,3.1-3.1V41.7c0-1.7-1.4-3.1-3.1-3.1H14.2c-1.7,0-3.1,1.4-3.1,3.1V82  C11.1,83.7,12.4,85.1,14.2,85.1z M17.3,44.8h34.1v34.1H17.3V44.8z M88,56.1c1.2,1.2,1.2,3.2,0,4.4l-7.8,7.8  c-0.6,0.6-1.4,0.9-2.2,0.9s-1.6-0.3-2.2-0.9l-7.7-7.7c-1.2-1.2-1.2-3.2,0-4.4c1.2-1.2,3.2-1.2,4.4,0l2.3,2.3  c-1.7-20.9-19.3-37.3-40.6-37.3c-1.7,0-3.1-1.4-3.1-3.1s1.4-3.1,3.1-3.1c24.8,0,45.1,19.3,46.8,43.7l2.5-2.5  C84.9,54.8,86.8,54.8,88,56.1z"></path></svg></g></g></svg>